<?xml version="1.0" encoding="UTF-8"?>
<svg width="17px" height="18px" viewBox="0 0 17 18" version="1.1" xmlns="http://www.w3.org/2000/svg" xmlns:xlink="http://www.w3.org/1999/xlink">
    <!-- Generator: Sketch 60.1 (88133) - https://sketch.com -->
    <title>退出</title>
    <desc>Created with Sketch.</desc>
    <g id="用户路径定稿" stroke="none" stroke-width="1" fill="none" fill-rule="evenodd">
        <g id="头像优化" transform="translate(-418.000000, -303.000000)" fill="#000000" fill-rule="nonzero">
            <g id="退出" transform="translate(418.000000, 303.000000)">
                <path d="M8.764032,8.98315056 L8.76403198,8.98315056 C8.41453111,8.98982452 8.1255458,8.7108055 8.11786626,8.35927001 L8.11786626,0.925966246 C8.11786626,0.580332094 8.40745132,0.298825653 8.76403198,0.298825653 C9.12169104,0.298825653 9.41235836,0.581418775 9.41235836,0.925966246 L9.41235836,8.35602157 L9.41235836,8.35602088 C9.40585684,8.70892342 9.11617408,8.9897067 8.7653353,8.98316727 C8.7652612,8.98316589 8.76518709,8.9831645 8.76511298,8.98316309 L8.764032,8.98315056 Z M8.56953486,17.6892838 L8.56953496,17.6892838 C6.39187053,17.6974202 4.29607635,16.8549494 2.72379821,15.3393447 L2.72379856,15.339345 C1.97281237,14.6143084 1.37071704,13.747953 0.951706221,12.7894733 L0.95170636,12.7894736 C-0.00823834233,10.5844974 0.101495492,8.05659135 1.24885563,5.9441764 L1.24885513,5.94417731 C1.86016399,4.82790073 2.72138765,3.87006689 3.76436176,3.14649593 L3.7643617,3.14649597 C4.05579792,2.94448352 4.45362897,3.00862612 4.66769693,3.29214041 L4.66769694,3.29214042 C4.86763608,3.56299468 4.81143221,3.94560112 4.54216189,4.14671638 C4.53373929,4.15300714 4.52515604,4.15907729 4.51642072,4.16492076 L4.5164206,4.16492084 C3.63653537,4.77648825 2.91002183,5.58541394 2.39423341,6.52783316 L2.39423354,6.52783291 C1.86814741,7.48848981 1.59337551,8.56785403 1.59571109,9.66462836 C1.59571109,11.473229 2.32183632,13.1731383 3.64010327,14.4513419 L3.64010368,14.4513423 C4.96468535,15.7328002 6.73393078,16.444029 8.57169618,16.433839 L8.57169655,16.433839 C10.4092274,16.4438619 12.1782941,15.7330883 13.5032891,14.4524251 L13.5032893,14.4524249 C14.8075428,13.2054392 15.5458168,11.4746291 15.5455093,9.66462853 L15.5455092,9.66464728 C15.5487472,8.56804505 15.2747107,7.48861702 14.749157,6.52785183 L14.7491571,6.52785189 C14.2323652,5.58572077 13.5046983,4.77748924 12.6237212,4.16710519 L12.6237212,4.1671052 C12.3447164,3.97989676 12.2694127,3.60062539 12.4555266,3.31997939 C12.4585829,3.31537067 12.4617014,3.31080396 12.4648813,3.30628058 L12.4756867,3.29323778 L12.4756866,3.29323784 C12.6893644,3.00986741 13.0868437,2.94570489 13.3779416,3.1475932 L13.3779413,3.14759303 C14.4206559,3.87068252 15.2815528,4.82818959 15.8923715,5.94419159 L15.8923717,5.9441921 C17.0412178,8.05612366 17.1513745,10.5845711 16.1906013,12.7894893 L16.1906017,12.7894885 C15.7719599,13.7484903 15.1698281,14.6152692 14.4185112,15.3404431 L14.4185117,15.3404427 C13.6594442,16.0767541 12.767487,16.6603791 11.7906281,17.059918 L11.7906277,17.0599182 C10.767705,17.4779868 9.67364993,17.6917303 8.56950669,17.6892838 L8.56953486,17.6892838 Z" id="形状"></path>
            </g>
        </g>
    </g>
</svg>