<?xml version="1.0" encoding="UTF-8"?>
<svg width="24px" height="20px" viewBox="0 0 24 20" version="1.1" xmlns="http://www.w3.org/2000/svg" xmlns:xlink="http://www.w3.org/1999/xlink">
    <!-- Generator: Sketch 60.1 (88133) - https://sketch.com -->
    <title>券</title>
    <desc>Created with Sketch.</desc>
    <g id="用户路径定稿" stroke="none" stroke-width="1" fill="none" fill-rule="evenodd">
        <g id="头像优化" transform="translate(-414.000000, -234.000000)" fill="#FF9529" fill-rule="nonzero">
            <g id="券" transform="translate(414.000000, 234.000000)">
                <path d="M22.726188,8.00848586 C23.4349695,7.53347489 23.4850948,7.11690149 23.4850948,6.48927315 L23.4850948,2.72330523 C23.4850948,1.50924652 22.5080861,0.523620376 21.3083594,0.523620376 L2.66465254,0.523620376 C1.46505732,0.523620376 0.488073136,1.50924655 0.488073136,2.72330525 L0.488073136,6.48924714 C0.488073136,7.11690151 0.547169244,7.62751669 1.29011587,8.03143122 C1.79673091,8.27238801 2.97361283,8.9654922 2.97361283,10.257525 C2.97361283,11.7251725 2.11028284,12.2059673 1.3605297,12.462965 L1.29243747,12.4950234 C0.56539764,12.9540734 0.488073136,13.7159311 0.488073136,14.0223351 L0.488073136,17.7871832 C0.488073136,18.9999893 1.46508181,19.9879592 2.66467704,19.9879592 L21.3083839,19.9879592 C22.5081106,19.9879592 23.4850948,18.9999867 23.4850948,17.7871832 L23.4850948,14.0223611 C23.4850948,13.2087794 23.2623767,12.908128 22.6943416,12.4836171 C21.4129347,11.8180148 20.9994468,11.2741157 20.9994468,10.2575234 C20.9994204,9.23738679 21.3834925,8.73596694 22.7261841,8.00848692 L22.726188,8.00848586 Z M16.0283661,9.94083186 C16.0283661,10.2884911 15.7488739,10.5719237 15.405774,10.5719237 L12.9225546,10.5719237 L12.9225546,11.1938229 L15.405774,11.1938229 C15.7488739,11.1938229 16.0283661,11.4772581 16.0283661,11.8249148 L16.0283661,12.451478 C16.0283661,12.7991373 15.7488739,13.0849162 15.405774,13.0849162 L12.9225546,13.0849162 L12.9225546,14.9633247 C12.9225546,15.3121011 12.6430624,15.5932186 12.2977737,15.5932186 L11.6752872,15.5932186 C11.3298929,15.5932186 11.0503722,15.3121011 11.0503722,14.9633247 L11.0503722,13.0849162 L8.56715285,13.0849162 C8.22418448,13.0849162 7.94466642,12.7991373 7.94466642,12.451478 L7.94466642,11.8249148 C7.94466642,11.4772555 8.22418448,11.1938229 8.56715285,11.1938229 L11.0503722,11.1938229 L11.0503722,10.5719237 L8.56715285,10.5719237 C8.22418448,10.5719237 7.94466642,10.2884885 7.94466642,9.94083186 L7.94466642,9.31429467 C7.94466642,8.96663541 8.22418448,8.68317414 8.56715285,8.68317414 L10.2007605,8.68317414 L8.13540922,6.44455695 C7.9173081,6.20005589 7.9173081,5.81911352 8.13540922,5.57706376 L8.53077289,5.14207888 C8.74887401,4.90346714 9.17148926,4.8989101 9.38959115,5.14207888 L11.9841676,7.95458215 L14.5787441,5.13989137 C14.7946819,4.9011463 15.221755,4.9011463 15.4375623,5.1421032 L15.8374377,5.58052558 C16.0555388,5.82492014 16.0555388,6.20817996 15.8374377,6.45022972 L13.7790758,8.68317242 L15.4057714,8.68317242 C15.7488713,8.68317242 16.0283661,8.96660765 16.0283661,9.31429295 L16.0283661,9.94083014 L16.0283661,9.94083186 Z" id="形状"></path>
            </g>
        </g>
    </g>
</svg>