<?xml version="1.0" encoding="UTF-8"?>
<svg width="20px" height="20px" viewBox="0 0 20 20" version="1.1" xmlns="http://www.w3.org/2000/svg" xmlns:xlink="http://www.w3.org/1999/xlink">
    <title>我的空间列表/图标/我的收藏/黑</title>
    <g id="我的空间列表/图标/我的收藏/黑" stroke="none" stroke-width="1" fill="none" fill-rule="evenodd">
        <g id="编组-3">
            <rect id="矩形" fill="#D8D8D8" opacity="0" x="0" y="0" width="20" height="20"></rect>
            <path d="M4.07734208,18.1745581 C3.8599139,17.8025708 3.792337,17.3583422 3.88894618,16.9361047 L4.86636202,12.6610941 C4.89007824,12.5597123 4.85760202,12.4531621 4.78180816,12.3836842 L1.58244215,9.52447616 C0.917898064,8.93101222 0.841194021,7.89314041 1.40929734,7.20122587 C1.68233221,6.86780439 2.07395413,6.66010498 2.49705935,6.62432371 L6.69582073,6.27353591 C6.78732731,6.26571506 6.8691898,6.2038384 6.90664472,6.10975826 L8.52438231,2.05189109 C8.86147639,1.20655001 9.79897026,0.802856521 10.6169224,1.15778475 C11.0070203,1.32781486 11.3156707,1.649249 11.4754694,2.05189109 L13.0932071,6.10952825 C13.1306619,6.2038384 13.2125245,6.2659451 13.304031,6.27353591 L17.503241,6.62455372 C18.3837675,6.69816165 19.0357519,7.49703773 18.9660005,8.40402545 C18.9332348,8.83685209 18.7363674,9.23926692 18.4176339,9.5249362 L15.2182679,12.3841443 C15.1438067,12.4506214 15.1101646,12.558273 15.133714,12.6613241 L16.1111299,16.9363347 C16.3134312,17.82078 15.7881655,18.711896 14.9307399,18.925129 C14.5178304,19.0279079 14.0819691,18.9561254 13.7211934,18.7259275 L10.126196,16.4348807 C10.0489904,16.3851787 9.95086136,16.3851787 9.87365578,16.4348807 L6.2784341,18.7259275 C5.52350484,19.2069093 4.53599636,18.9580225 4.07734208,18.1745581 Z" id="路径" stroke="#292A2D" stroke-width="1.8" stroke-linecap="round" fill-rule="nonzero"></path>
            <path d="M10.1349478,13.1500293 C10.0906133,11.6538857 10.8180044,10.9058139 12.3171212,10.9058139" id="路径-2" stroke="#292A2D" stroke-width="1.8" stroke-linecap="round" fill-rule="nonzero"></path>
        </g>
    </g>
</svg>