<?xml version="1.0" encoding="UTF-8"?>
<svg width="20px" height="20px" viewBox="0 0 20 20" version="1.1" xmlns="http://www.w3.org/2000/svg" xmlns:xlink="http://www.w3.org/1999/xlink">
    <title>我的空间列表/图标/回收站/黑备份 2</title>
    <g id="我的空间列表/图标/回收站/黑备份-2" stroke="none" stroke-width="1" fill="none" fill-rule="evenodd">
        <g id="编组-3" fill="#D8D8D8" opacity="0">
            <rect id="矩形" x="0" y="0" width="20" height="20"></rect>
        </g>
        <g id="编组" transform="translate(1.800877, 2.632664)" fill-rule="nonzero" stroke="#292A2D">
            <path d="M4.09956167,3.18854796 L4.50370654,0.831036185 C4.586007,0.350950167 5.00223953,3.11521451e-16 5.4893288,0 L10.9089179,0 C11.3960071,-3.00054414e-16 11.8122397,0.350950167 11.8945401,0.831036185 L12.298685,3.18854796 L12.298685,3.18854796" id="路径" stroke-width="1.8"></path>
            <line x1="0" y1="3.21079454" x2="16.3982467" y2="3.21079454" id="路径" stroke-width="1.6" stroke-linecap="round"></line>
            <path d="M14.035604,4.26720562 L13.2823946,13.8133295 C13.2413526,14.3334929 12.8072729,14.7346718 12.2854929,14.7346718 L4.11275378,14.7346718 C3.59097374,14.7346718 3.15689409,14.3334929 3.1158521,13.8133295 L2.36264264,4.26720562 C2.31920121,3.71663203 2.73031307,3.2350877 3.28088667,3.19164628 C3.30705506,3.18958154 3.3332946,3.18854796 3.35954433,3.18854796 L13.0387023,3.18854796 C13.5909871,3.18854796 14.0387023,3.63626321 14.0387023,4.18854796 C14.0387023,4.21479769 14.0376688,4.24103723 14.035604,4.26720562 Z" id="路径" stroke-width="1.8"></path>
            <line x1="5.69912333" y1="11.6913198" x2="10.6991233" y2="11.6913198" id="路径" stroke-width="1.8" stroke-linecap="round"></line>
        </g>
    </g>
</svg>