<?xml version="1.0" encoding="UTF-8"?>
<svg width="20px" height="20px" viewBox="0 0 20 20" version="1.1" xmlns="http://www.w3.org/2000/svg" xmlns:xlink="http://www.w3.org/1999/xlink">
    <title>我的空间列表/图标/我的创作/黑备份</title>
    <g id="我的空间列表/图标/我的创作/黑备份" stroke="none" stroke-width="1" fill="none" fill-rule="evenodd">
        <g id="编组-3" fill="#D8D8D8" opacity="0">
            <rect id="矩形" x="0" y="0" width="20" height="20"></rect>
        </g>
        <g id="编组" transform="translate(2.518466, 2.000000)" fill-rule="nonzero" stroke="#292A2D" stroke-width="1.7">
            <path d="M3.59014309,3 C3.59014309,1.34315 4.6653602,0 5.99170013,0 L9.5940357,0 C10.9203756,0 11.9955927,1.34315 11.9955927,3 L11.9955927,4 L3.59014309,4 L3.59014309,3 Z" id="路径"></path>
            <path d="M0,8.5 L7.6038519,10.6094106 C7.72795333,10.6438706 7.8577825,10.6438706 7.98188393,10.6094106 L15.5857358,8.5 L15.5857358,14.1208287 C15.5857358,14.5984262 15.2368491,14.9855716 14.806449,14.9855716 L0.779286792,14.9855716 C0.348898386,14.9855716 0,14.5984262 0,14.1208287 L0,8.5 Z" id="路径"></path>
            <path d="M15.5857358,9.5 L15.5857358,5 C15.5857358,4.4477 15.2368491,4 14.806449,4 L0.779286792,4 C0.348898386,4 0,4.4477 0,5 L0,9.5" id="路径"></path>
        </g>
        <path d="M11.6368672,9.32 C11.6368672,10.0524778 11.0433994,10.6462797 10.3113338,10.6462797 C9.57926824,10.6462797 8.98580043,10.0524778 8.98580043,9.32 C8.98580043,8.58752223 9.57926824,7.99372027 10.3113338,7.99372027 C11.0433994,7.99372027 11.6368672,8.58752223 11.6368672,9.32 Z" id="路径" fill="#333333" fill-rule="nonzero"></path>
    </g>
</svg>