<?xml version="1.0" encoding="UTF-8"?>
<svg width="20px" height="20px" viewBox="0 0 20 20" version="1.1" xmlns="http://www.w3.org/2000/svg" xmlns:xlink="http://www.w3.org/1999/xlink">
    <title>我的空间列表/图标/我的创作/黑备份 2</title>
    <g id="我的空间列表/图标/我的创作/黑备份-2" stroke="none" stroke-width="1" fill="none" fill-rule="evenodd">
        <g id="编组-3" fill="#D8D8D8" opacity="0">
            <rect id="矩形" x="0" y="0" width="20" height="20"></rect>
        </g>
        <g id="编组" transform="translate(1.703158, 3.620654)">
            <g id="编组-2" transform="translate(6.326296, 2.643519)">
                <path d="M1.97054608,5.25478956 L1.97054608,3.94109217 C3.05884584,3.94109217 3.94109217,3.05884584 3.94109217,1.97054608 C3.94109217,0.882246324 3.05884584,0 1.97054608,0 C0.882246324,0 0,0.882246324 0,1.97054608" id="路径" stroke="#292A2D" stroke-width="1.6" stroke-linecap="round" stroke-linejoin="round" fill-rule="nonzero"></path>
                <path d="M1.97054608,8.21060868 C2.42400158,8.21060868 2.79160695,7.84300331 2.79160695,7.38954781 C2.79160695,6.93609232 2.42400158,6.56848695 1.97054608,6.56848695 C1.51709059,6.56848695 1.14948522,6.93609232 1.14948522,7.38954781 C1.14948522,7.84300331 1.51709059,8.21060868 1.97054608,8.21060868 Z" id="路径" fill="#333333"></path>
            </g>
            <path d="M14.593685,0 C15.6982545,-2.02906125e-16 16.593685,0.8954305 16.593685,2 L16.593685,10.0367063 C16.593685,11.1412758 15.6982545,12.0367063 14.593685,12.0367063 L10.487,12.036 L8.36755316,14.1566161 C8.32850073,14.1956685 8.26518423,14.1956685 8.2261318,14.1566161 L6.106,12.036 L2,12.0367063 C0.8954305,12.0367063 1.3527075e-16,11.1412758 0,10.0367063 L0,2 C-1.3527075e-16,0.8954305 0.8954305,6.46995335e-16 2,0 L14.593685,0 Z" id="形状结合" stroke="#292A2D" stroke-width="1.8" fill-rule="nonzero"></path>
        </g>
    </g>
</svg>