<?xml version="1.0" encoding="UTF-8"?>
<svg width="24px" height="24px" viewBox="0 0 24 24" version="1.1" xmlns="http://www.w3.org/2000/svg" xmlns:xlink="http://www.w3.org/1999/xlink">
    <!-- Generator: Sketch 60.1 (88133) - https://sketch.com -->
    <title>皇冠</title>
    <desc>Created with Sketch.</desc>
    <g id="用户路径定稿" stroke="none" stroke-width="1" fill="none" fill-rule="evenodd">
        <g id="头像优化" transform="translate(-742.000000, -123.000000)" fill="#606266" fill-rule="nonzero">
            <g id="编组备份" transform="translate(742.000000, 123.000000)">
                <g id="皇冠">
                    <path d="M2.433617,22.923241 C2.433617,22.3683296 2.89390717,21.9165434 3.4648682,21.9165434 L20.1107717,21.9165434 C20.6792175,21.9165434 21.1420229,22.3658742 21.1420229,22.923241 C21.1420229,23.4781523 20.6817327,23.9299386 20.1107717,23.9299386 L3.4648682,23.9299386 C2.89642242,23.9299386 2.433617,23.4781523 2.433617,22.923241 Z M23.476172,9.89264544 C23.5667209,9.63237728 23.5491141,9.3426448 23.4082603,9.08728736 C23.4057451,9.07992128 23.4007146,9.07501056 23.3981993,9.06764448 L23.3981993,9.06518912 C23.252315,8.8024656 22.9882141,8.60358144 22.661232,8.54956352 C22.304067,8.49063488 21.9594781,8.62076896 21.7305907,8.8638496 L17.7363787,11.6457725 L12.6203667,6.05491776 C12.5851532,6.01808736 12.5499397,5.98371232 12.512211,5.95179264 L12.5071806,5.94688192 C12.0821038,5.57612256 11.4306549,5.61295296 11.0533679,6.0279088 L5.89208139,11.6703261 L1.84504924,8.85402816 C1.61616178,8.62076896 1.2791187,8.49800096 0.926984148,8.55447424 C0.486815953,8.62567968 0.157318619,8.962064 0.0843764605,9.36965376 C0.0516782517,9.52925216 0.0592239922,9.69376128 0.107013682,9.84844896 L2.29276318,19.6404246 C2.29779367,19.7705587 2.32797663,19.8933267 2.37828157,20.0062733 C2.5518336,20.440872 3.01966951,20.713417 3.5076274,20.6323901 C3.54284085,20.6274794 3.57805431,20.6201133 3.61326776,20.6102918 L20.2491103,20.6102918 C20.5836381,20.6102918 20.8804372,20.4556042 21.0690808,20.2149789 C21.1772364,20.0848448 21.255209,19.9252464 21.285392,19.7460051 L23.476172,9.89264544 Z" id="形状"></path>
                    <path d="M11.78782,0.5279024 C10.0497844,0.5279024 8.64376142,1.902904 8.64376142,3.5971024 C8.64376142,5.2913008 10.0522996,6.6663024 11.78782,6.6663024 C13.5233403,6.6663024 14.9318785,5.2913008 14.9318785,3.5971024 C14.9318785,1.902904 13.5258555,0.5279024 11.78782,0.5279024 Z" id="路径"></path>
                </g>
            </g>
        </g>
    </g>
</svg>