<?xml version="1.0" encoding="UTF-8"?>
<svg width="18px" height="20px" viewBox="0 0 18 20" version="1.1" xmlns="http://www.w3.org/2000/svg" xmlns:xlink="http://www.w3.org/1999/xlink">
    <!-- Generator: Sketch 60.1 (88133) - https://sketch.com -->
    <title>个人中心</title>
    <desc>Created with Sketch.</desc>
    <g id="用户路径定稿" stroke="none" stroke-width="1" fill="none" fill-rule="evenodd">
        <g id="头像优化" transform="translate(-417.000000, -269.000000)" fill="#000000" fill-rule="nonzero">
            <g id="个人中心" transform="translate(417.000000, 269.000000)">
                <path d="M15.8169429,7.2639147 C15.8169429,7.37060233 15.8191433,7.47728995 15.8169429,7.58397757 C15.812542,7.74400901 15.7949386,7.90181779 15.7795355,8.06184922 C15.7575312,8.27744713 15.7201239,8.49082238 15.6783157,8.70197497 C15.6321066,8.93313149 15.5704945,9.15762003 15.4978802,9.37988591 C15.3306474,9.90221074 15.1040028,10.3978637 14.8201471,10.8668447 C14.6815198,11.0935559 14.5318905,11.3135991 14.3690585,11.522529 C14.1446144,11.8114747 13.9025668,12.0826391 13.6341141,12.3315768 C13.3392562,12.6071865 13.0223939,12.8561243 12.6857278,13.0761676 C12.3116543,13.3184374 11.9199774,13.5251446 11.5062961,13.6918441 C11.2312421,13.802977 10.9517872,13.8963287 10.665731,13.9696764 C10.3730735,14.0452468 10.0760152,14.096368 9.77455594,14.1363758 C9.37407727,14.1897196 8.9735986,14.1852743 8.57311993,14.1719384 C8.37728146,14.1652704 8.18144299,14.1363758 7.98560452,14.1097039 C7.72815395,14.0741414 7.47290381,14.0207976 7.22205453,13.9518951 C6.90959315,13.8674341 6.60373307,13.7607465 6.30667471,13.6318323 C5.89739432,13.4540196 5.51011824,13.2406443 5.14264605,12.9894839 C4.68495615,12.676089 4.27567575,12.3115729 3.9038027,11.900381 C3.569337,11.529197 3.27887994,11.1224504 3.03243153,10.6868093 C2.77498096,10.2356096 2.57254119,9.75996058 2.4229118,9.262085 C2.33269407,8.95980339 2.26228024,8.65085382 2.21607117,8.33968158 C2.19626727,8.20632205 2.18306468,8.07296252 2.16766166,7.93738033 C2.14785777,7.74400901 2.13905604,7.54841503 2.13245474,7.35282106 C2.12805388,7.20834823 2.1368556,7.06165275 2.1434569,6.91717992 C2.1500582,6.78604305 2.16106036,6.65490618 2.17206252,6.52376931 C2.18526511,6.39263244 2.20066814,6.26371823 2.22267246,6.13258135 C2.30628889,5.63692843 2.44271569,5.15683413 2.627552,4.69007577 C2.74637534,4.39001683 2.88940343,4.10107118 3.05003499,3.82101617 C3.23927216,3.49428532 3.45051366,3.18533574 3.68816034,2.89416743 C3.88619924,2.64967496 4.09964117,2.41629578 4.33068656,2.20292053 C4.7773743,1.79172865 5.26366983,1.43832589 5.8005753,1.15382556 C6.1900518,0.94711829 6.59713177,0.780418877 7.01741433,0.649282006 C7.29906966,0.562598311 7.58732628,0.495918546 7.87998377,0.447020051 C8.0868244,0.413680169 8.2980659,0.391453581 8.50710696,0.37367231 C8.76675797,0.351445721 9.02640897,0.360336357 9.28826041,0.362559016 C9.38948029,0.362559016 9.49070018,0.378117627 9.59192006,0.389230922 C9.67553649,0.398121557 9.75915291,0.409234851 9.84276934,0.415902828 C10.0672134,0.438129416 10.2872567,0.484805252 10.5072999,0.533703746 C10.7383453,0.584824899 10.9627894,0.651504664 11.185033,0.729297724 C11.4754901,0.829317371 11.7571454,0.949340948 12.029999,1.0871458 C12.3512621,1.24939989 12.6571222,1.43832589 12.9497797,1.64947848 C13.1236138,1.77617004 13.2930471,1.90952957 13.4536787,2.05177973 C13.6671206,2.23848307 13.8673599,2.43852237 14.0565971,2.6474523 C14.2832416,2.89639009 14.4856814,3.16533181 14.6727181,3.44538682 L14.6727182,3.44538694 C14.8939428,3.77913928 15.0860998,4.13163969 15.247031,4.49892722 C15.39446,4.83677137 15.5154837,5.1857288 15.6057015,5.54357688 C15.669514,5.79029201 15.7157231,6.04145246 15.7531304,6.29483556 C15.8015399,6.61712109 15.8279451,6.93940663 15.816943,7.26391482 L15.8169429,7.2639147 Z M14.4416727,7.26613738 C14.4416727,7.17056305 14.4460736,7.07498872 14.4416727,6.97941439 C14.432871,6.80826966 14.4108667,6.64157025 14.3888624,6.47042552 C14.3602567,6.25038229 14.3118472,6.03700704 14.254636,5.82585445 C14.2128278,5.66360036 14.1600174,5.50579158 14.1028062,5.35020546 C13.994985,5.05903716 13.8629591,4.7812048 13.7111292,4.51448574 C13.5945063,4.31000113 13.4646808,4.11662981 13.3238532,3.92992647 C13.1258143,3.66543007 12.9035706,3.42316025 12.661523,3.19867171 C12.4216759,2.97862849 12.1664258,2.77858919 11.8913718,2.6052218 C11.5238996,2.36961996 11.1344231,2.18069396 10.7229422,2.04066646 C10.4698925,1.95398276 10.212442,1.887303 9.94839008,1.84062716 C9.72614643,1.8006193 9.50390277,1.76950208 9.27945868,1.76061144 C9.19144139,1.75838876 9.1034241,1.76283412 9.01540681,1.74505283 C8.98240033,1.73838485 8.94499298,1.74727551 8.90978606,1.74949815 C8.88558131,1.75172083 8.86137655,1.75838878 8.8371718,1.75838878 C8.700745,1.75838878 8.5643182,1.76505676 8.42569097,1.78061537 C8.21224904,1.80506462 8.00100755,1.83618184 7.79196648,1.88508034 C7.45750078,1.96065074 7.13403724,2.06733836 6.82157586,2.20514321 C6.50691405,2.34294806 6.20765526,2.50742481 5.92599994,2.70079613 C5.60253639,2.92306201 5.30327761,3.17422246 5.03482487,3.46316811 C4.92920413,3.57652371 4.82578381,3.69210197 4.72676436,3.81434821 C4.5045207,4.09218056 4.31088267,4.38779419 4.14585025,4.70118908 C4.00282215,4.97457612 3.87739751,5.25685379 3.78497936,5.55246742 C3.69696207,5.83029977 3.6243478,6.11035479 3.58253959,6.40152309 C3.54953311,6.62378898 3.52092749,6.8438322 3.51872706,7.06832074 C3.51872706,7.08610202 3.51872706,7.10388329 3.51432619,7.12166456 C3.49672273,7.20612559 3.49892317,7.29280929 3.50772489,7.37727032 C3.52312792,7.52841112 3.51872706,7.68177458 3.53853095,7.83513804 C3.55833484,7.97961087 3.57153743,8.12408369 3.60014305,8.26633386 C3.63975083,8.47304113 3.69036077,8.67530308 3.74977244,8.87534238 C3.82238671,9.11983485 3.91260443,9.359882 4.02042561,9.59103852 C4.16125327,9.89332013 4.32628569,10.1822658 4.51992373,10.4556528 C4.68935701,10.6957 4.87859419,10.9224112 5.08103395,11.1335638 C5.30987891,11.3713883 5.56072818,11.5825408 5.82698048,11.7759122 C6.06462717,11.9492795 6.31767688,12.095975 6.57732788,12.2293346 C6.77756722,12.3315769 6.98660828,12.4160379 7.20005021,12.4916083 C7.37608479,12.5538428 7.5543198,12.6049639 7.73695568,12.6471944 C7.94159587,12.6938703 8.14843651,12.7361008 8.359678,12.7561047 C8.54891517,12.7761086 8.73815235,12.7916672 8.92738952,12.7938899 C9.15183361,12.7983352 9.3762777,12.7761086 9.60072179,12.7561047 C9.79656026,12.7361008 9.99239873,12.7027609 10.1838363,12.6583077 C10.6041189,12.5605107 11.006798,12.4160379 11.3918736,12.2226666 C11.5591065,12.1382056 11.719738,12.0448539 11.8781692,11.9448342 C12.1400206,11.7825801 12.3842686,11.5958768 12.6109131,11.3891695 C12.7957494,11.2202475 12.971784,11.0402121 13.134616,10.8490634 C13.2666419,10.6912546 13.3898661,10.5267779 13.506489,10.3578558 C13.6143102,10.200047 13.7067284,10.0333476 13.801347,9.86442556 C13.9487759,9.59992916 14.0653988,9.3220968 14.1600174,9.03537381 C14.285442,8.65752181 14.3734593,8.27077917 14.4152675,7.87292324 C14.432871,7.67066129 14.4460736,7.46839934 14.4416727,7.26613738 L14.4416727,7.26613738 Z M8.98460076,14.8676306 C9.12102756,14.8676306 9.25965479,14.85874 9.39608159,14.8698532 C9.55011185,14.8831892 9.7041421,14.8809665 9.85817236,14.8965251 C9.98799786,14.9098611 10.1178234,14.9209744 10.2476489,14.929865 C10.3554701,14.936533 10.4654917,14.9520916 10.5711124,14.9720955 C10.6481275,14.9876542 10.7251427,14.9920995 10.7999574,15.0054354 C10.9319833,15.0254394 11.0618088,15.0521113 11.1938347,15.0765605 C11.4468844,15.1210137 11.6955333,15.1810255 11.9441821,15.2477052 C12.4766867,15.3877327 12.9937883,15.5655455 13.4998877,15.7811434 C13.76614,15.894499 14.0279915,16.0167452 14.2832416,16.1501047 C14.7761384,16.4034878 15.2492314,16.6924335 15.6981195,17.0169417 C15.8829559,17.1525239 16.0677922,17.2903287 16.2460272,17.4325789 C16.3956566,17.5503798 16.5386847,17.6770714 16.6817128,17.8037629 C16.9413638,18.0282514 17.1790105,18.2771892 17.4188576,18.519459 C17.502474,18.6039201 17.568487,18.6994944 17.5948921,18.8172953 C17.6477025,19.0528972 17.6080947,19.2707177 17.4452628,19.4529758 C17.3440429,19.5663314 17.22742,19.6530151 17.0755901,19.6885776 C16.8577473,19.7396988 16.657508,19.6952456 16.4748721,19.568554 C16.4176609,19.5285462 16.3692514,19.477425 16.3208419,19.4240812 C16.204219,19.295167 16.0831952,19.1706981 15.9555701,19.0551198 C15.8521498,18.9639908 15.7531304,18.8661938 15.6519105,18.7750648 C15.4296668,18.5772482 15.2008219,18.3905448 14.9609747,18.2149548 C14.7563345,18.063814 14.5472935,17.9215638 14.3316511,17.7859816 C13.9641789,17.5526025 13.5813037,17.3481178 13.1896268,17.1658598 C12.7319369,16.9547072 12.2588439,16.7813398 11.7747489,16.643535 C11.4424836,16.5479607 11.1080179,16.4701676 10.7669509,16.4168238 C10.6151211,16.3923745 10.4632912,16.36348 10.309261,16.3412534 C10.2058407,16.3256948 10.0980195,16.3234721 9.99459916,16.3101362 C9.81636415,16.2856869 9.63812914,16.2834643 9.45769369,16.2701283 C9.25745436,16.2545697 9.05721502,16.2501244 8.85697569,16.2545697 C8.67433981,16.259015 8.49170394,16.265683 8.30906806,16.2834643 C8.28706374,16.285687 8.26725985,16.285687 8.24525552,16.2879096 C8.0868244,16.2901323 7.93059371,16.3123588 7.77216259,16.3301401 C7.6159319,16.3479214 7.45750078,16.370148 7.30127009,16.3945972 C7.09662989,16.4279371 6.89419012,16.467945 6.69175036,16.5123981 C6.40349373,16.5768552 6.11743754,16.6546483 5.83798265,16.7457773 C5.60473683,16.8213477 5.37149101,16.9058088 5.14484649,17.0013831 C4.86099073,17.119184 4.58373626,17.2458756 4.31088267,17.3859031 C3.83778973,17.6303955 3.38670112,17.9148959 2.95761683,18.2305134 C2.73757361,18.3905449 2.52853254,18.5639122 2.31949148,18.7395023 C2.19846771,18.8417446 2.08404523,18.9528775 1.96742232,19.0617878 C1.86180157,19.1618075 1.75838126,19.2618271 1.65496094,19.3640694 C1.62415489,19.392964 1.5977497,19.4263039 1.56914408,19.4596438 C1.4613229,19.5774447 1.33589827,19.6707963 1.17966758,19.6996909 C0.964025216,19.7396988 0.754984152,19.7108042 0.583350437,19.5596634 C0.440322341,19.4329719 0.354505483,19.2729404 0.352305051,19.0751238 C0.352305051,19.0106667 0.345703754,18.9462096 0.36110678,18.8839751 C0.389712399,18.7572836 0.451324502,18.6461506 0.53714136,18.5483536 C0.730779398,18.3260878 0.946421758,18.1282711 1.16206412,17.9282318 C1.66816354,17.4570281 2.21387073,17.0369456 2.79258441,16.6657616 C3.17325919,16.4212691 3.56713657,16.2012259 3.97421653,16.0056319 C4.28447748,15.8544911 4.60354015,15.7211316 4.92480326,15.5988854 C5.16905124,15.5055337 5.41549965,15.4232953 5.6641485,15.3477249 C5.91719821,15.2721545 6.17244835,15.2032521 6.42989892,15.1476856 C6.64334085,15.1010098 6.85678278,15.0587793 7.0702247,15.0209941 C7.23305669,14.9920995 7.39808911,14.9743182 7.5609211,14.9520916 C7.73255481,14.929865 7.90418853,14.9165291 8.07582224,14.9009705 C8.20124688,14.8898572 8.32887195,14.8898572 8.45429659,14.8787439 C8.6325316,14.8631853 8.80856618,14.8631853 8.98460076,14.8676306 L8.98460076,14.8676306 Z" id="形状"></path>
            </g>
        </g>
    </g>
</svg>