<?xml version="1.0" standalone="no"?>
<!DOCTYPE svg PUBLIC "-//W3C//DTD SVG 20010904//EN"
 "http://www.w3.org/TR/2001/REC-SVG-20010904/DTD/svg10.dtd">
<svg version="1.0" xmlns="http://www.w3.org/2000/svg"
 width="433.000000pt" height="433.000000pt" viewBox="0 0 433.000000 433.000000"
 preserveAspectRatio="xMidYMid meet">
<metadata>
Created by potrace 1.11, written by Peter Selinger 2001-2013
</metadata>
<g transform="translate(0.000000,433.000000) scale(0.100000,-0.100000)"
fill="#000000" stroke="none">
<path d="M1950 4319 c-959 -98 -1731 -810 -1911 -1764 -30 -155 -37 -501 -15
-672 114 -870 756 -1593 1605 -1808 196 -49 281 -59 531 -60 257 0 352 11 557
65 600 157 1106 570 1382 1125 134 272 201 523 220 828 40 618 -183 1214 -615
1652 -330 333 -753 549 -1215 620 -129 19 -413 27 -539 14z m277 -784 c47 -9
110 -59 134 -107 18 -34 24 -69 30 -173 5 -100 13 -150 34 -210 63 -192 190
-337 384 -441 66 -35 116 -92 130 -149 6 -24 11 -82 11 -128 0 -253 165 -523
386 -631 120 -59 170 -135 162 -246 -16 -218 -312 -269 -414 -70 -13 26 -19
71 -25 170 -8 155 -31 236 -99 350 -71 120 -213 251 -313 289 -43 17 -105 80
-121 124 -8 23 -17 90 -20 148 -2 58 -12 135 -21 170 -38 149 -145 313 -260
400 l-55 42 -39 -28 c-22 -15 -64 -53 -94 -84 -138 -145 -207 -318 -207 -522
0 -140 -32 -193 -158 -259 -153 -79 -258 -188 -333 -345 -47 -97 -69 -192 -69
-304 0 -112 -15 -156 -70 -212 -79 -79 -183 -89 -277 -26 -61 41 -93 101 -93
174 0 96 43 163 135 210 147 75 266 192 338 331 59 113 77 188 86 344 7 120 9
130 36 169 21 29 54 56 110 86 163 90 265 194 335 338 51 106 70 186 79 330 7
124 15 150 60 198 42 46 125 81 171 71 8 -1 29 -5 47 -9z m44 -1518 c54 -29
105 -101 115 -163 21 -141 -108 -271 -248 -250 -173 26 -249 243 -130 370 63
67 180 86 263 43z"/>
</g>
</svg>
