<svg enable-background="new 0 0 25 25" viewBox="0 0 25 25" xmlns="http://www.w3.org/2000/svg"><path d="m24.3 21.1h-8.8l.4-.4 7.4-7.4c1.1-1.1 1.1-2.8 0-3.9l-6.9-6.9c-1.1-1.1-2.8-1.1-3.9 0l-7.3 7.4-4.2 4.3c-1.1 1.1-1.1 2.8 0 3.9l4.2 4.2c.1.1.3.2.5.2h18.6c.4 0 .7-.3.7-.7s-.3-.7-.7-.7zm-10.6-17.6c.5-.5 1.3-.5 1.8 0l6.9 6.9c.5.5.5 1.3 0 1.8l-6.9 6.9-8.7-8.7zm-11.8 13.6c-.5-.5-.5-1.3 0-1.8l3.8-3.8 8.7 8.7-1 1h-7.4z"/><path d="m-1 1h26.5v22.2h-26.5z" fill="none"/><path d="m14.4 1.7 9.7 9.7-6.9 6.9-9.8-9.7z"/><path d="m0 0h25v25h-25z" fill="none"/></svg>